<?xml version="1.0" standalone="no"?>
<!DOCTYPE svg PUBLIC "-//W3C//DTD SVG 1.1//EN" "http://www.w3.org/Graphics/SVG/1.1/DTD/svg11.dtd" >
<svg xmlns="http://www.w3.org/2000/svg">
<metadata>
<json>
<![CDATA[
{
	"fontFamily": "brazilbanks",
	"majorVersion": 1,
	"minorVersion": 0,
	"designerURL": "https://www.linkedin.com/in/mauriciosteiguer/",
	"designer": "Mauricio Steiguer",
	"version": "Version 1.0",
	"fontId": "brazilbanks",
	"psName": "brazilbanks",
	"subFamily": "Regular",
	"fullName": "brazilbanks",
	"description": "Font generated by IcoMoon."
}
]]>
</json>
</metadata>
<defs>
<font id="brazilbanks" horiz-adv-x="1024">
<font-face units-per-em="1024" ascent="960" descent="-64" />
<missing-glyph horiz-adv-x="1024" />
<glyph unicode="&#x20;" horiz-adv-x="512" d="" />
<glyph unicode="&#xe900;" d="M204.8 960h614.4c113.108 0 204.8-91.692 204.8-204.8v-614.4c0-113.108-91.692-204.8-204.8-204.8h-614.4c-113.108 0-204.8 91.692-204.8 204.8v614.4c0 113.108 91.692 204.8 204.8 204.8z" />
<glyph unicode="&#xe901;" d="M746.701 634.982l-94.822 165.274c-9.216 16.384-26.829 26.419-45.466 26.419h-189.645c-19.046 0-36.045-10.24-45.466-26.419l-94.822-165.274c-9.216-16.384-9.216-36.659 0-52.838l94.822-165.274c9.216-16.384 26.829-26.419 45.466-26.419h68.813l26.010 45.466h-94.822c-2.662 0-5.325 1.229-6.554 3.891l-94.822 165.274c-1.229 2.253-1.229 5.325 0 7.578l94.822 165.274c1.229 2.253 3.891 3.891 6.554 3.891h189.645c2.662 0 5.325-1.229 6.554-3.891l94.822-165.274c1.229-2.253 1.229-5.325 0-7.578l-55.091-96.051h52.019l42.394 73.114c9.216 16.384 9.216 36.659-0.41 52.838z" />
<glyph unicode="&#xe902;" d="M579.584 317.133l-42.394 73.114h-52.019l55.091-96.051c1.229-2.253 1.229-5.325 0-7.578l-94.822-165.274c-1.229-2.253-3.891-3.891-6.554-3.891h-189.645c-2.662 0-5.325 1.229-6.554 3.891l-94.822 165.274c-1.229 2.253-1.229 5.325 0 7.578l94.822 165.274c1.229 2.253 3.891 3.891 6.554 3.891h94.822l-26.010 45.466h-68.403c-19.046 0-36.045-10.24-45.466-26.419l-95.232-165.274c-9.216-16.384-9.216-36.659 0-52.838l94.822-165.274c9.216-16.384 26.829-26.419 45.466-26.419h189.645c19.046 0 36.045 10.24 45.466 26.419l94.822 165.274c10.24 16.384 10.24 36.659 0.41 52.838z" />
<glyph unicode="&#xe903;" d="M913.818 317.133l-94.822 164.864c-9.216 16.384-26.829 26.419-45.466 26.419h-189.645c-19.046 0-36.045-10.24-45.466-26.419l-52.838-91.75h52.019l39.731 69.222c1.229 2.253 3.891 3.891 6.554 3.891h189.645c2.662 0 5.325-1.229 6.554-3.891l94.822-165.274c1.229-2.253 1.229-5.325 0-7.578l-94.822-165.274c-1.229-2.253-3.891-3.891-6.554-3.891h-189.645c-2.662 0-5.325 1.229-6.554 3.891l-39.731 68.813-26.010-45.466 26.829-46.285c9.216-16.384 26.829-26.419 45.466-26.419h189.645c19.046 0 36.045 10.24 45.466 26.419l94.822 165.274c9.626 16.794 9.626 37.069 0 53.248z" />
<glyph unicode="&#xe904;" d="M204.8 960h614.4c113.108 0 204.8-91.692 204.8-204.8v-614.4c0-113.108-91.692-204.8-204.8-204.8h-614.4c-113.108 0-204.8 91.692-204.8 204.8v614.4c0 113.108 91.692 204.8 204.8 204.8z" />
<glyph unicode="&#xe905;" d="M102.4 152.269l85.402 56.73 85.197-56.73-170.598-113.869v113.869z" />
<glyph unicode="&#xe906;" d="M921.6 743.731l-85.402-56.934-85.197 56.934 170.598 113.869v-113.869z" />
<glyph unicode="&#xe907;" d="M921.6 311.398l-409.6-272.998-409.6 272.998 486.4 324.403 85.402-56.934-392.602-261.734 239.002-159.334 110.797 73.933-85.402 56.934 205.005 136.602 170.598-113.869z" />
<glyph unicode="&#xe908;" d="M102.4 584.397l409.6 272.998 409.6-272.998-486.4-324.198-85.402 56.934 392.602 261.734-239.002 159.13-110.797-73.933 85.197-56.73-204.8-136.602-170.598 113.664z" />
<glyph unicode="&#xe909;" d="M204.8 960h614.4c113.108 0 204.8-91.692 204.8-204.8v-614.4c0-113.108-91.692-204.8-204.8-204.8h-614.4c-113.108 0-204.8 91.692-204.8 204.8v614.4c0 113.108 91.692 204.8 204.8 204.8z" />
<glyph unicode="&#xe90a;" d="M495.821 549.171c0 24.781 22.733 44.646 47.309 40.55 132.301-19.866 233.882-134.758 233.882-272.384 0-216.064-172.646-263.578-247.603-273.408-17.818-2.048-33.587 11.878-33.587 29.696v475.546z" />
<glyph unicode="&#xe90b;" d="M407.962 852.275c-88.678 0-160.768-72.294-160.768-161.587v-359.629c0-16.794 13.926-30.72 30.515-30.72h123.29c52.224 0 94.618 42.598 94.618 95.027v426.189c0 16.794-13.722 30.72-30.515 30.72h-57.139z" />
<glyph unicode="&#xe90c;" d="M204.8 960h614.4c113.108 0 204.8-91.692 204.8-204.8v-614.4c0-113.108-91.692-204.8-204.8-204.8h-614.4c-113.108 0-204.8 91.692-204.8 204.8v614.4c0 113.108 91.692 204.8 204.8 204.8z" />
<glyph unicode="&#xe90d;" d="M524.698 413.389h81.715v-370.483h-81.715v370.483z" />
<glyph unicode="&#xe90e;" d="M345.907 702.157c75.776 90.317 227.942 157.696 433.766 25.6-88.269 127.59-336.896 228.762-528.179-38.298-47.718-21.299-95.232-42.598-142.95-63.898 43.418 9.421 86.835 18.637 130.048 28.058-47.718-211.149 11.059-310.272 99.533-378.266-82.125 108.134-111.002 228.352-22.938 390.963 366.592 17.818 717.824-163.635 441.549-385.843 312.115 129.024 167.526 481.69-410.829 421.683z" />
<glyph unicode="&#xe90f;" d="M440.32 295.834h40.755v-252.928h-40.755v252.928z" />
<glyph unicode="&#xe910;" d="M204.8 960h614.4c113.108 0 204.8-91.692 204.8-204.8v-614.4c0-113.108-91.692-204.8-204.8-204.8h-614.4c-113.108 0-204.8 91.692-204.8 204.8v614.4c0 113.108 91.692 204.8 204.8 204.8z" />
<glyph unicode="&#xe911;" d="M194.56 791.859l-10.035-63.488c141.107-28.467 267.059-99.738 363.315-199.68l144.998 95.232s16.589 11.264 24.371 1.843c0 0 7.782-7.373-6.963-23.142l-118.989-123.494c84.173-104.653 138.24-233.882 150.733-375.194h67.994l107.52 687.718h-722.944z" />
<glyph unicode="&#xe912;" d="M333.414 302.182l-6.758 7.987 155.238 174.285c-83.354 82.534-190.259 141.926-309.453 166.502l-63.283-404.275c-11.264-75.776 2.662-142.541 129.024-142.541h425.574c-11.878 119.398-57.344 228.762-127.181 318.669l-203.366-120.627z" />
<glyph unicode="&#xe913;" d="M204.8 960h614.4c113.108 0 204.8-91.692 204.8-204.8v-614.4c0-113.108-91.692-204.8-204.8-204.8h-614.4c-113.108 0-204.8 91.692-204.8 204.8v614.4c0 113.108 91.692 204.8 204.8 204.8z" />
<glyph unicode="&#xe914;" d="M681.574 470.938l8.602 43.213h-74.547v58.982l-52.429-7.987v-175.923c0-60.826 23.347-78.848 87.040-78.848h27.853l8.602 42.803h-32.768c-29.082 0-38.502 7.373-38.502 39.731v78.643s65.946 0 65.946 0zM321.946 593.408v-189.030c0-70.042 31.539-99.328 100.557-99.328s103.219 28.467 103.219 98.918v18.022c0 66.15-29.286 98.509-93.389 98.509-20.275 0-42.598-4.301-57.549-16.179v97.485l-52.634-8.397zM424.346 478.31c36.25 0 48.947-14.541 48.947-58.163v-16.179c0-42.394-12.902-56.934-49.766-56.934s-49.766 14.541-49.766 57.344v21.914c0 38.912 12.902 52.019 50.381 52.019v0zM808.141 520.499c-69.018 0-100.557-29.696-100.557-97.485v-10.445c0-64.307 27.443-95.437 92.365-95.437 20.685 0 41.37 3.891 56.115 15.77v-7.782c0-36.25-15.36-48.128-51.61-48.128h-21.709c-12.288-0.205-18.022-2.458-25.395-14.95v0c-62.054-100.557-169.984-161.792-287.334-161.792-187.392 0-339.968 155.853-339.968 347.546s152.371 347.75 339.763 347.75c131.686 0 251.494-78.029 307.61-199.27h15.565c-57.139 129.843-183.706 213.811-323.174 213.811-195.379 0-354.099-162.406-354.099-362.086s158.925-362.086 354.099-362.086c114.893 0 220.774 56.32 286.925 149.709h50.586c66.765 0 100.966 25.805 100.966 91.546v99.328c0 65.536-32.768 94.003-100.147 94.003v0zM856.474 406.221c0-36.25-12.493-47.309-48.128-47.309-40.346 0-48.128 14.336-48.128 56.115v6.554c0 41.574 7.168 56.525 48.128 56.525s48.128-14.541 48.128-56.934v-14.95z" />
<glyph unicode="&#xe915;" d="M204.8 960h614.4c113.108 0 204.8-91.692 204.8-204.8v-614.4c0-113.108-91.692-204.8-204.8-204.8h-614.4c-113.108 0-204.8 91.692-204.8 204.8v614.4c0 113.108 91.692 204.8 204.8 204.8z" />
<glyph unicode="&#xe916;" d="M378.88 373.658c14.336 12.493 23.552 29.082 28.058 49.357h141.312c-6.554-58.163-29.901-105.472-70.246-141.517s-90.317-54.272-149.299-54.272c-43.008 0-81.92 9.421-116.326 28.467-34.611 18.842-61.44 45.261-80.896 78.848-19.251 33.587-29.082 71.475-29.082 113.459s9.626 79.667 29.082 113.459c19.251 33.587 46.285 60.006 80.896 78.848 34.611 19.046 73.318 28.467 116.326 28.467 58.163 0 107.315-17.408 147.251-52.224s63.693-80.486 70.861-137.011h-139.264c-5.939 18.637-15.974 33.587-30.31 45.056-14.336 11.264-30.31 16.998-48.128 16.998-24.371 0-44.032-8.602-58.982-25.805s-22.528-39.731-22.528-67.789 7.578-50.176 22.528-67.379c15.155-17.203 34.611-25.805 58.982-25.805 18.842 0 35.43 6.349 49.766 18.842v0zM880.435 488.346c27.443-26.214 41.165-60.416 41.165-101.99 0-47.718-15.77-86.221-47.309-115.302-31.539-29.286-73.318-43.827-124.928-43.827s-92.57 14.746-124.518 44.032c-31.949 29.286-47.923 67.174-47.923 113.869 0 25.395 4.301 51.2 13.107 77.005s22.323 54.067 40.755 84.582l64.922 107.93h137.216s-76.8-127.386-76.8-127.386c7.578 0.41 13.722 0.614 18.227 0.614 43.418 0 78.848-13.107 106.291-39.526v0zM787.866 347.238c9.83 10.035 14.746 23.142 14.746 39.117s-4.915 29.082-14.746 39.526c-9.83 10.24-22.733 15.36-38.502 15.36s-28.672-5.12-38.502-15.36c-9.83-10.24-14.746-23.347-14.746-39.526s4.915-29.082 14.746-39.117c9.83-10.035 22.733-15.155 38.502-15.155s28.467 5.12 38.502 15.155v0z" />
<glyph unicode="&#xe917;" d="M204.8 960h614.4c113.108 0 204.8-91.692 204.8-204.8v-614.4c0-113.108-91.692-204.8-204.8-204.8h-614.4c-113.108 0-204.8 91.692-204.8 204.8v614.4c0 113.108 91.692 204.8 204.8 204.8z" />
<glyph unicode="&#xe918;" d="M647.987 465.203l272.179 275.251h-259.686l-98.918-102.195 86.426-173.056z" />
<glyph unicode="&#xe919;" d="M354.099 155.546l281.395 281.6h-256.41l-275.251-281.6h250.266z" />
<glyph unicode="&#xe91a;" d="M394.65 465.203l-137.626 275.251h253.338l137.626-275.251h-253.338z" />
<glyph unicode="&#xe91b;" d="M522.854 158.822l-57.344 108.339 169.984 169.984 140.698-278.323h-253.338z" />
<glyph unicode="&#xe91c;" d="M204.8 960h614.4c113.108 0 204.8-91.692 204.8-204.8v-614.4c0-113.108-91.692-204.8-204.8-204.8h-614.4c-113.108 0-204.8 91.692-204.8 204.8v614.4c0 113.108 91.692 204.8 204.8 204.8z" />
<glyph unicode="&#xe91d;" d="M692.634 541.184c0-5.12-2.048-10.24-5.734-13.926s-8.602-5.734-13.926-5.734c-10.854 0-19.661 8.806-19.661 19.661s8.806 19.661 19.661 19.661c10.854 0 19.661-8.806 19.661-19.661zM399.565 561.050c0-11.469-9.421-20.89-20.89-20.89s-20.89 9.421-20.89 20.89 9.421 20.89 20.89 20.89 20.89-9.421 20.89-20.89z" />
<glyph unicode="&#xe91e;" d="M288.154 640.512c-3.686 0-7.373-1.434-10.035-4.096s-4.096-6.144-4.096-10.035v-79.667c-28.058 28.467-70.451 37.069-107.52 21.914-36.864-15.155-61.030-51.2-61.030-91.136s24.166-75.981 61.030-91.136c36.864-15.155 79.462-6.554 107.52 21.914v-15.155c0-7.782 6.349-14.131 14.131-14.131s14.131 6.349 14.131 14.131v233.267c0 3.686-1.434 7.373-4.096 10.035s-6.349 4.096-10.035 4.096v0zM203.776 407.245c-38.912 0-70.246 31.539-70.246 70.246s31.539 70.246 70.246 70.246 70.246-31.539 70.246-70.246-32.563-70.246-70.246-70.246zM379.699 518.861c3.686 0 7.373-1.434 10.035-4.096s4.096-6.144 4.096-10.035v-112.026c0-7.782-6.349-14.131-14.131-14.131s-14.131 6.349-14.131 14.131v112.026c0 3.686 1.434 7.373 4.096 10.035s6.144 4.096 10.035 4.096zM672.154 501.043v0c3.482 0 6.963-1.229 9.421-3.891 2.458-2.458 3.891-5.939 3.891-9.421v-105.677c0.41-4.915-2.048-9.626-6.349-12.288s-9.626-2.662-13.722 0-6.758 7.373-6.349 12.288v105.677c0 3.482 1.434 6.963 3.891 9.421s5.939 3.891 9.421 3.891zM825.754 554.086c-51.2 0-92.774-41.574-92.774-92.774s41.574-92.774 92.774-92.774c51.2 0 92.774 41.574 92.774 92.774 0 24.576-9.626 48.333-27.034 65.741s-40.96 27.238-65.741 27.034v0zM825.754 395.162c-36.659 0-66.15 29.696-66.15 66.15s29.696 66.15 66.15 66.15 66.15-29.696 66.15-66.15c0-36.659-29.696-66.15-66.15-66.15v0zM607.437 540.979c0 3.482-1.434 6.963-3.891 9.421s-5.939 3.891-9.421 3.891h-79.462c-40.141 0-75.571-25.805-88.064-64.102-12.493-38.093 1.024-79.872 33.382-103.629 32.358-23.552 76.39-23.757 108.749-0.41 15.565-22.323 15.974-51.814 0.819-74.547-14.95-22.733-42.394-33.792-69.018-28.262s-47.104 27.034-51.61 53.658c-1.434 6.963-7.987 11.469-14.95 10.24s-11.878-7.373-11.059-14.336c7.578-45.875 47.718-79.053 94.208-77.619 48.333 1.229 88.064 40.55 90.112 88.678 1.024 21.709-5.734 43.213-19.046 60.416 28.467 37.274 24.781 89.907-8.602 122.88h14.541c3.482 0 6.963 1.434 9.421 3.891s3.891 5.939 3.891 9.421v0zM580.813 461.517c0-36.659-29.696-66.15-66.15-66.15s-66.15 29.696-66.15 66.15 29.696 66.15 66.15 66.15c36.659 0 66.15-29.696 66.15-66.15v0z" />
<glyph unicode="&#xe91f;" d="M204.8 960h614.4c113.108 0 204.8-91.692 204.8-204.8v-614.4c0-113.108-91.692-204.8-204.8-204.8h-614.4c-113.108 0-204.8 91.692-204.8 204.8v614.4c0 113.108 91.692 204.8 204.8 204.8z" />
<glyph unicode="&#xe920;" d="M97.894 82.227h416.768l2.253 11.469-411.034 85.197 7.987 45.875 411.034-88.883 3.482 15.974-388.301 168.755 16.794 46.49 389.325-163.635 7.987 11.469-344.883 256.205 35.43 55.91 342.835-256.205 10.24 13.722-269.926 342.835 66.15 53.658 267.674-326.656 11.469 10.24-155.853 396.288 94.618 39.936 146.842-388.301 11.674 3.482v430.49h150.938v-797.082h-823.501v32.768z" />
<glyph unicode="&#xe921;" d="M204.8 960h614.4c113.108 0 204.8-91.692 204.8-204.8v-614.4c0-113.108-91.692-204.8-204.8-204.8h-614.4c-113.108 0-204.8 91.692-204.8 204.8v614.4c0 113.108 91.692 204.8 204.8 204.8z" />
<glyph unicode="&#xe922;" d="M329.318 478.72v0c0 21.504 0 39.322-0.41 39.526-0.614 0.41-12.902-1.638-19.866-3.072-3.072-0.614-6.144-1.229-9.216-1.434-2.253 0-4.506-0.614-4.915-0.819s-4.506-1.024-9.216-1.638c-4.71-0.614-8.806-1.229-9.216-1.638-0.41-0.205-3.686-0.819-7.168-1.434-3.686-0.41-6.758-1.024-7.168-1.229s-2.662-0.819-5.12-1.024l-4.506-0.41v-65.946h-37.888v-58.163h37.888v-65.536c0.41-43.622 0.819-66.56 1.229-68.608 0.614-2.662 1.229-5.53 1.843-8.192 0.614-2.867 1.229-5.734 1.638-6.554s1.024-3.277 1.638-5.53c0.614-2.458 1.229-4.301 1.638-4.506 0 0 0.819-1.434 1.229-2.662 1.434-3.891 5.939-11.264 9.011-14.95 3.891-4.915 8.806-10.445 9.626-10.445 0.41 0 1.843-1.229 3.686-2.458 2.867-2.458 4.506-3.482 10.035-6.349 1.229-0.819 2.458-1.434 2.662-1.638 0 0 1.434-0.819 2.867-1.229s2.867-1.024 3.277-1.434c0.41-0.205 2.253-0.819 3.891-1.229 1.843-0.41 3.686-1.024 3.891-1.229 0.819-0.614 11.469-2.458 13.926-2.458 1.024 0 2.048-0.205 2.458-0.614 1.638-1.638 28.467-1.434 43.213 0.205 10.24 1.229 17.818 2.458 19.456 3.072l1.843 0.819v57.344l-4.301-0.41c-2.458-0.205-4.915-0.819-5.325-1.229-1.229-1.024-27.648-1.024-28.877 0-0.614 0.41-1.843 0.819-2.867 1.229-6.554 1.638-14.131 7.987-16.794 14.131-3.482 7.987-3.482 4.915-3.686 70.246v60.621s65.126 0 65.126 0v58.163h-65.331v39.117z" />
<glyph unicode="&#xe923;" d="M108.954 179.098h76.39v260.301h-76.39v-260.301z" />
<glyph unicode="&#xe924;" d="M647.782 359.322c-0.614 2.867-1.024 5.734-1.434 6.144 0 0.614-0.819 2.662-1.024 4.915-0.41 2.253-1.024 4.301-1.229 4.506-0.205 0.41-0.614 1.638-1.024 2.867-0.205 1.229-1.024 3.482-1.638 5.12-0.614 1.434-1.229 2.867-1.229 3.277 0 0.819-5.734 12.083-7.168 13.926-0.819 1.024-1.229 2.048-1.229 2.253 0 0.819-11.674 14.95-12.698 15.36-0.41 0-2.662 2.048-5.325 4.301-2.458 2.253-5.53 4.506-6.349 4.915s-2.048 1.229-2.662 1.638c-1.638 1.229-11.674 6.349-16.384 8.192-5.53 2.253-14.541 4.915-18.227 5.53-1.638 0-3.277 0.614-3.686 0.819-0.819 0.614-11.059 1.843-20.275 2.253v0c-3.686 0-8.397 0.41-10.445 0.614-7.782 0.41-41.984-1.638-45.875-2.867-1.024-0.41-5.12-1.024-8.806-1.638-3.891-0.614-7.373-1.024-8.192-1.229-2.048-0.41-4.096-1.024-6.144-1.434-2.662-0.614-5.325-1.229-5.939-1.638s-2.662-0.819-4.915-1.434c-2.048-0.41-4.096-1.024-4.506-1.229s-2.458-1.024-4.915-1.638c-2.458-0.614-4.506-1.434-4.915-1.638s-2.048-0.819-3.891-1.229c-1.843-0.41-3.686-1.024-4.096-1.434-0.614-0.614-0.819-7.373-0.819-30.925 0-16.589 0-30.31 0.41-30.31s1.434 0.614 2.867 1.229c1.229 0.614 3.891 1.638 5.734 2.048s3.482 1.024 3.891 1.229c0.41 0.205 2.253 0.819 3.891 1.434 1.843 0.41 3.686 1.024 3.891 1.434 0.41 0.41 2.662 1.024 5.325 1.638 2.458 0.614 5.12 1.229 5.734 1.638 0.819 0.41 3.072 0.819 5.325 1.229s4.506 1.024 5.325 1.229c0.819 0.41 3.891 1.024 6.963 1.638s6.963 1.229 8.602 1.638c12.698 2.867 54.886 2.458 54.886-0.614 0-0.205 1.024-0.819 2.458-1.024 2.867-0.614 7.373-2.662 10.24-4.71 1.024-0.819 2.253-1.434 2.458-1.434 0.819 0 7.168-6.554 8.602-8.806 2.253-3.686 4.915-8.806 5.325-11.264 0.205-1.229 0.614-2.458 1.024-2.662 0.205 0 0.819-2.867 1.024-6.144 0.41-5.53 0.41-5.734-0.819-5.325-3.482 1.434-36.045 1.638-45.466 0.41-2.458-0.41-7.987-1.024-12.493-1.434s-8.397-1.024-8.806-1.229c-0.41-0.205-2.867-0.819-5.53-1.229s-6.554-1.229-8.602-1.843c-5.325-1.434-17.613-5.53-18.842-6.144-8.806-4.096-14.746-7.168-17.408-8.806-3.686-2.253-14.746-10.854-14.746-11.469 0-0.205-0.614-0.614-1.229-0.819-0.819 0-1.434-0.819-1.843-1.638 0-0.614-0.614-1.229-0.819-1.434-1.229-0.819-8.397-10.24-8.397-10.854 0-0.41 0-0.819-0.41-0.819s-0.819-0.614-1.229-1.434c-0.41-0.819-1.229-2.253-1.843-3.482-1.843-3.277-3.686-7.782-4.506-11.264-0.41-1.843-1.024-3.482-1.229-3.891s-0.819-3.072-1.229-6.144c-2.048-15.77-2.253-18.432-1.434-19.251 0.41-0.41 0.614-2.253 0.614-4.096 0-4.096 1.229-13.312 2.048-14.336 0.205-0.41 0.819-2.253 1.229-4.301s1.229-4.301 1.638-5.325c0.41-0.819 1.434-3.072 2.253-4.915s2.253-4.506 3.277-5.939c1.024-1.434 1.843-2.867 1.843-3.277 0-0.819 1.024-1.843 8.602-9.421 7.373-7.373 8.397-8.397 11.059-9.83 1.843-1.024 3.482-2.048 5.325-3.072 2.458-1.434 5.12-2.662 7.782-3.891 2.253-0.819 5.12-2.048 6.144-2.458 1.024-0.614 4.096-1.229 6.554-1.638s4.915-1.024 5.325-1.229c3.277-2.458 44.442-2.458 47.718 0 0.41 0.205 2.253 0.819 4.301 1.229s4.301 1.229 5.325 1.638c0.819 0.614 2.867 1.229 4.301 1.638 2.458 0.819 4.71 2.253 13.312 7.782 3.891 2.662 13.722 12.083 16.794 15.974l1.843 2.662 0.41-5.939c0.205-3.277 0.41-9.216 0.614-13.517v-7.782h71.475v87.45c-0.614 72.090-0.819 88.269-1.434 92.774zM576.512 287.027c0-10.854-0.41-16.794-0.819-17.408s-0.819-1.843-1.024-3.072c-0.819-4.71-7.782-16.179-11.469-18.842-0.614-0.41-2.253-1.843-3.686-2.867s-4.506-2.867-6.963-4.096c-2.253-1.024-4.71-2.253-5.325-2.458-3.482-1.843-19.046-2.458-27.238-1.229-4.506 0.819-6.144 1.434-14.336 5.53-4.71 2.458-9.83 10.445-11.264 16.998-1.229 6.144-1.434 10.65-0.819 12.288 0.41 0.614 0.819 2.458 1.024 3.686 0.614 3.891 3.686 9.83 6.758 13.107 3.277 3.482 7.987 6.144 17.818 10.445 1.229 0.614 4.096 1.434 6.144 1.843 2.253 0.41 4.506 1.024 5.325 1.434s4.096 0.819 7.168 1.229c7.168 0.614 30.72 0.819 35.43 0.205l3.482-0.41v-16.384z" />
<glyph unicode="&#xe925;" d="M188.826 528.691c-0.614 1.434-1.024 2.662-1.229 2.867 0 0-0.819 1.434-1.638 2.662-1.434 2.662-8.397 10.035-11.264 12.083-3.686 2.458-8.602 4.71-12.288 5.53-1.843 0.41-3.891 1.024-4.096 1.434v0s-14.336 1.229-18.227 0.819c-1.434 0-3.277-0.614-3.891-0.819-0.819-0.41-2.662-1.024-4.506-1.434-3.891-1.024-10.24-4.096-11.469-5.53-0.41-0.614-1.024-1.024-1.229-1.024-1.024 0-8.806-8.397-10.035-10.854-0.819-1.434-1.434-2.662-1.638-2.867 0 0-0.819-1.434-1.229-2.662s-1.229-3.277-1.843-4.506c-2.048-4.71-1.638-24.986 0.614-29.491 0.41-0.614 1.434-3.072 2.662-5.53 2.253-4.71 10.035-13.517 13.926-15.36 1.024-0.614 2.048-1.024 2.253-1.434 0 0 1.434-0.819 2.662-1.229 1.434-0.614 2.867-1.229 4.301-1.843 1.024-0.41 3.686-1.024 5.734-1.229s3.686-0.819 3.686-1.024c0-0.819 14.131-0.819 14.746 0 0 0.205 2.048 0.819 4.096 1.024 2.662 0.205 5.939 1.434 10.445 3.686 5.53 2.662 7.373 4.096 11.469 8.397 4.506 4.71 6.144 7.373 9.626 15.565 1.024 2.458 2.048 9.011 2.048 14.746s-1.024 13.517-1.843 14.746c-0.41 0.41-0.819 1.843-1.434 3.277z" />
<glyph unicode="&#xe926;" d="M843.366 359.117c0-76.8-0.205-89.907-1.843-91.955-0.41-0.41-0.819-1.843-1.024-3.277s-1.024-3.686-1.843-4.915c-0.614-1.229-1.229-2.662-1.229-3.072s-0.819-1.843-2.048-3.277c-1.024-1.434-2.048-2.867-2.048-3.072 0-1.024-6.758-7.373-10.445-9.626-2.048-1.229-4.915-2.662-6.554-3.072s-3.686-1.024-4.506-1.638c-0.819-0.41-4.915-0.614-9.421-0.614-6.554 0-8.806 0.205-12.902 1.638-2.867 0.819-5.12 1.843-5.12 2.048s-0.819 0.614-1.638 0.819c-0.819 0.205-3.891 2.458-6.349 5.12-4.915 4.915-9.011 11.878-10.035 16.794-0.205 1.229-0.614 2.458-1.024 2.867-1.638 2.048-1.843 16.998-1.843 94.618v81.101s-76.595 0-76.595 0v-92.774c0.41-69.632 0.614-92.979 1.229-94.003 0.41-0.819 1.024-3.891 1.434-7.168s1.024-6.349 1.229-6.963c0.41-0.614 0.819-2.458 1.229-4.301s1.229-4.096 1.638-5.325c0.41-1.024 1.229-3.072 1.638-4.506 1.024-3.482 6.144-12.902 9.421-17.613 5.325-7.782 18.022-19.661 23.757-22.323 0.819-0.41 1.638-0.819 1.638-1.229s1.229-0.819 2.662-1.229c1.434-0.41 2.662-1.024 2.662-1.229s1.229-0.819 2.867-1.229c1.434-0.41 3.072-1.024 3.482-1.434 0.41-0.205 2.458-1.024 4.915-1.638s4.915-1.434 5.53-1.638c2.662-1.024 11.878-1.843 23.142-1.843s22.938 1.024 23.757 2.048c0 0.205 2.048 0.819 4.301 1.229s4.71 1.229 5.53 1.638 3.891 2.048 6.554 3.277c5.939 2.867 8.602 4.301 9.83 5.325 9.011 7.373 14.746 13.107 18.432 18.022 0.819 1.024 1.638 1.843 1.843 1.843s0.614-5.734 0.614-12.902c0-7.168 0.41-13.312 0.819-13.722 0.41-0.614 8.602-0.819 36.864-0.819h36.25v260.301h-76.595v-80.282z" />
<glyph unicode="&#xe927;" d="M870.81 507.802v32.973h-1.434s-3.686-0.614-6.349-1.024c-2.662-0.41-8.602-1.434-13.107-2.253s-9.216-1.638-10.445-2.048c-1.229-0.41-4.915-1.024-8.192-1.434s-6.554-1.024-7.168-1.434c-0.819-0.205-3.891-0.819-6.963-1.229s-7.168-1.024-9.216-1.638c-2.048-0.614-6.349-1.229-9.83-1.638s-6.554-1.024-6.963-1.229c-0.41-0.205-3.686-0.819-7.168-1.229-3.686-0.41-6.758-1.024-7.168-1.229-0.614-0.41-10.24-2.048-26.010-4.506l-7.168-1.024v-44.237h126.976v32.973z" />
<glyph unicode="&#xe928;" d="M204.8 960h614.4c113.108 0 204.8-91.692 204.8-204.8v-614.4c0-113.108-91.692-204.8-204.8-204.8h-614.4c-113.108 0-204.8 91.692-204.8 204.8v614.4c0 113.108 91.692 204.8 204.8 204.8z" />
<glyph unicode="&#xe929;" d="M763.904 290.509c-4.301 0-8.602 1.024-12.698 2.867-14.541 6.963-20.685 24.576-13.517 39.117l122.266 253.542c6.963 14.541 24.576 20.685 39.117 13.517 14.541-6.963 20.685-24.576 13.517-39.117l-122.266-253.542c-5.12-10.445-15.565-16.384-26.419-16.384v0z" />
<glyph unicode="&#xe92a;" d="M763.904 290.509c-6.758 0-13.517 2.253-18.842 6.963l-408.166 345.907c-12.288 10.445-13.926 28.877-3.482 41.165s28.877 13.926 41.165 3.482l408.166-345.907c12.288-10.445 13.926-28.877 3.482-41.165-5.734-6.963-13.926-10.445-22.118-10.445z" />
<glyph unicode="&#xe92b;" d="M137.626 201.216c-11.059 0-21.709 6.349-26.624 16.998-6.758 14.746-0.205 31.949 14.336 38.707l748.544 343.040c14.746 6.758 31.949 0.205 38.707-14.336s0.205-31.949-14.336-38.707l-748.339-343.040c-3.891-1.843-7.987-2.662-12.288-2.662z" />
<glyph unicode="&#xe92c;" d="M137.626 201.216c-4.301 0-8.806 1.024-13.107 3.072-14.336 7.168-20.275 24.781-13.107 39.117l218.112 435.405c7.168 14.336 24.781 20.275 39.117 13.107s20.275-24.781 13.107-39.117l-218.112-435.405c-5.12-10.24-15.565-16.179-26.214-16.179v0z" />
<glyph unicode="&#xe92d;" d="M204.8 960h614.4c113.108 0 204.8-91.692 204.8-204.8v-614.4c0-113.108-91.692-204.8-204.8-204.8h-614.4c-113.108 0-204.8 91.692-204.8 204.8v614.4c0 113.108 91.692 204.8 204.8 204.8z" />
<glyph unicode="&#xe92e;" d="M891.29 321.843c0-25.19-30.106-56.32-54.682-56.32h-22.323c0 154.419 0 327.475 0 358.195 0 3.891 3.072 6.963 6.758 6.963 0 0 0 0 0 0h63.078c3.891 0 6.963-3.277 6.963-6.963v-301.875zM788.48 211.456c0-15.974-7.782-42.803-60.211-42.803-101.376 0-163.635 79.462-163.635 136.397 0 0 0 184.32 0 318.669 0 3.891 3.072 6.963 6.758 6.963 0 0 0 0 0 0h63.283c3.891 0 6.963-3.072 6.963-6.963v-296.141c0-48.947 38.707-88.678 86.426-88.678h60.621v-27.648zM889.242 657.51h-72.704c-15.36 0-28.058-12.902-28.058-28.672v-363.11h-60.621c-33.382 0-60.416 27.853-60.416 62.054v301.056c0 15.974-12.493 28.672-28.058 28.672h-72.704c-15.565 0-28.058-12.902-28.058-28.672 0-131.277 0-323.379 0-323.379 0-100.966 110.592-163.021 189.645-163.021 53.043 0 86.221 26.624 86.221 69.427v27.443h22.323c39.117 0 80.486 42.598 80.486 82.944v306.79c0 15.974-12.493 28.672-28.058 28.672v0s0 0 0 0zM459.571 272.077c0-3.891-3.072-6.963-6.758-6.963 0 0 0 0 0 0h-63.283c-3.891 0-6.963 3.277-6.963 6.963v296.141c0 48.947-38.707 88.678-86.426 88.678h-60.621v27.648c0 15.974 7.782 42.803 60.211 42.803 101.376 0 163.635-79.462 163.635-136.397 0 0 0-185.139 0-318.669v0zM139.469 265.114c-3.891 0-6.963 3.277-6.963 6.963v301.875c0 25.19 30.106 56.32 54.477 56.32h22.323c0-221.184 0-334.234 0-358.195 0-3.891-3.072-6.963-6.963-6.963h-63.078zM485.376 590.746c0 100.966-110.387 163.021-189.645 163.021-53.043 0-86.221-26.624-86.221-69.427v-27.443h-22.323c-39.117 0-80.486-42.598-80.486-82.944v-306.79c0-15.974 12.493-28.672 28.058-28.672h72.704s0.819 0 1.229 0c14.95 0.614 26.829 13.312 26.829 28.672v363.11h60.621c33.382 0 60.416-27.853 60.416-62.054v-301.056c0-15.974 12.493-28.672 28.058-28.672h72.704c15.565 0 28.058 12.902 28.058 28.672 0 133.734 0 323.379 0 323.379v0z" />
<glyph unicode="&#xe92f;" d="M204.8 960h614.4c113.108 0 204.8-91.692 204.8-204.8v-614.4c0-113.108-91.692-204.8-204.8-204.8h-614.4c-113.108 0-204.8 91.692-204.8 204.8v614.4c0 113.108 91.692 204.8 204.8 204.8z" />
<glyph unicode="&#xe930;" d="M844.595 549.171c13.722 0 24.986-11.059 24.986-24.986v0-267.878c0-8.806-4.71-17.203-12.493-21.504v0l-332.595-191.283c-3.891-2.253-8.192-3.277-12.493-3.277s-8.602 1.024-12.493 3.277v0l-332.595 190.874c-7.782 4.506-12.493 12.698-12.493 21.504v0 267.878c0 13.722 11.264 24.986 24.986 24.986s24.986-11.059 24.986-24.986v0-253.338l307.61-176.538 307.61 176.947v253.542c0 13.722 11.264 24.986 24.986 24.986z" />
<glyph unicode="&#xe931;" d="M857.088 661.402l-332.595 191.283c-7.782 4.506-17.203 4.506-24.986 0l-332.595-191.898c-7.782-4.506-12.493-12.698-12.493-21.504s4.71-17.203 12.493-21.504l332.595-190.874c3.891-2.253 8.192-3.277 12.493-3.277s8.602 1.024 12.493 3.277l332.595 191.283c7.782 4.506 12.493 12.698 12.493 21.504s-4.71 17.203-12.493 21.504zM512 477.082l-282.624 162.202 282.624 163.021 282.624-162.611-282.624-162.611z" />
<glyph unicode="&#xe932;" d="M204.8 960h614.4c113.108 0 204.8-91.692 204.8-204.8v-614.4c0-113.108-91.692-204.8-204.8-204.8h-614.4c-113.108 0-204.8 91.692-204.8 204.8v614.4c0 113.108 91.692 204.8 204.8 204.8z" />
<glyph unicode="&#xe933;" d="M874.906 677.171v0l-362.906 159.744-362.906-159.744v-92.774h725.811v92.774z" />
<glyph unicode="&#xe934;" d="M220.57 244.838c-10.854 0-19.456-8.806-19.456-19.456s8.806-19.456 19.456-19.456h115.098c10.854 0 19.456 8.806 19.456 19.456s-8.806 19.456-19.456 19.456h-6.554v278.528h6.554c10.854 0 19.456 8.806 19.456 19.456s-8.806 19.456-19.456 19.456h-115.098c-10.854 0-19.456-8.806-19.456-19.456s8.806-19.456 19.456-19.456h6.554v-278.528h-6.554z" />
<glyph unicode="&#xe935;" d="M454.451 244.838c-10.854 0-19.456-8.806-19.456-19.456s8.806-19.456 19.456-19.456h115.098c10.854 0 19.456 8.806 19.456 19.456s-8.806 19.456-19.456 19.456h-6.554v278.528h6.554c10.854 0 19.456 8.806 19.456 19.456s-8.806 19.456-19.456 19.456h-115.098c-10.854 0-19.456-8.806-19.456-19.456s8.806-19.456 19.456-19.456h6.554v-278.528h-6.554z" />
<glyph unicode="&#xe936;" d="M692.019 244.838c-10.854 0-19.456-8.806-19.456-19.456s8.806-19.456 19.456-19.456h115.098c10.854 0 19.456 8.806 19.456 19.456s-8.806 19.456-19.456 19.456h-6.554v278.528h6.554c10.854 0 19.456 8.806 19.456 19.456s-8.806 19.456-19.456 19.456h-115.098c-10.854 0-19.456-8.806-19.456-19.456s8.806-19.456 19.456-19.456h6.554v-278.528h-6.554z" />
<glyph unicode="&#xe937;" d="M149.094 164.966v-11.059c0-10.24 8.397-18.637 18.637-18.637h688.538c10.24 0 18.637 8.397 18.637 18.637v11.059c0 10.24-8.397 18.637-18.637 18.637h-688.538c-10.24 0-18.637-8.397-18.637-18.637z" />
<glyph unicode="&#xe938;" d="M904.602 112.947h-785.203c-10.24 0-18.637-8.397-18.637-18.637v-16.794c0-10.24 8.397-18.637 18.637-18.637h785.203c10.24 0 18.637 8.397 18.637 18.637v16.794c0 10.24-8.397 18.637-18.637 18.637z" />
<glyph unicode="&#xe939;" d="M204.8 960h614.4c113.108 0 204.8-91.692 204.8-204.8v-614.4c0-113.108-91.692-204.8-204.8-204.8h-614.4c-113.108 0-204.8 91.692-204.8 204.8v614.4c0 113.108 91.692 204.8 204.8 204.8z" />
<glyph unicode="&#xe93a;" d="M663.962 464.589h127.59v-372.122h-127.59v372.122z" />
<glyph unicode="&#xe93b;" d="M353.28 675.942h-123.29v-107.93h114.483c72.704 0 114.483-35.226 114.483-101.376s-41.779-103.424-114.483-103.424h-114.483v202.547h-127.59v-473.498h127.59v163.021h121.242c147.456 0 233.472 79.258 233.472 215.859 0 127.795-83.763 204.8-231.219 204.8z" />
<glyph unicode="&#xe93c;" d="M663.962 803.533v-257.638h257.638v257.638h-257.638zM879.821 589.926h-171.827v171.827h171.827v-171.827z" />
<glyph unicode="&#xe93d;" d="M749.773 717.926h86.016v-86.016h-86.016v86.016z" />
<glyph unicode="&#xe93e;" d="M204.8 960h614.4c113.108 0 204.8-91.692 204.8-204.8v-614.4c0-113.108-91.692-204.8-204.8-204.8h-614.4c-113.108 0-204.8 91.692-204.8 204.8v614.4c0 113.108 91.692 204.8 204.8 204.8z" />
<glyph unicode="&#xe93f;" d="M589.414 395.366c-1.843 39.117-16.384 62.874-30.925 77.21v0c19.251 0 45.875-16.794 45.875-43.827 0-14.95-5.12-25.805-15.155-33.382v0zM524.493 320.41v37.478c13.926 0.41 26.419 1.638 37.683 3.891-5.325-25.6-19.456-37.683-37.683-41.37v0zM472.269 364.032c7.168-2.458 15.77-4.506 27.238-5.53v-37.478c-13.722 4.915-25.805 18.842-27.238 43.008v0zM472.064 472.371h27.443v-90.726c-10.24 1.434-19.456 3.891-27.443 7.168v83.558zM428.646 533.197c0 13.517 6.144 25.395 18.432 33.792v-66.56c-11.674 6.758-18.432 19.046-18.432 32.563v0zM499.507 637.85v-33.997c-9.216-0.205-18.022-1.229-26.419-2.867 3.072 16.998 12.698 30.925 26.419 37.069v0zM553.165 595.661c-7.782 2.662-16.998 5.53-28.672 6.963v36.864c13.312-4.506 24.781-18.227 28.672-43.827v0zM524.493 496.333v83.354c10.445-1.434 20.48-4.096 29.901-7.578-1.024-36.045-19.251-69.427-29.901-75.981v0zM472.064 577.638c7.987 2.048 17.203 3.072 27.443 3.482v-85.811h-27.443v82.534zM564.429 384.717c-11.059-2.458-24.371-3.891-39.936-4.096v91.546c11.469-2.662 39.936-30.515 39.936-84.992 0-0.819 0-1.638 0-2.662v0zM554.598 495.104h-1.229c12.493 15.565 22.528 40.346 25.395 65.536 8.806-5.325 16.589-11.469 23.347-18.227 3.277-3.277 4.915-5.12 7.578-5.12 4.915 0 7.578 4.301 4.915 8.397-6.758 10.854-9.216 20.275-9.216 31.949 0 7.578 2.458 14.336 4.096 18.637s0 8.397-4.915 8.397c-4.096 0-4.915-3.277-6.758-5.939-3.277-5.734-9.421-10.445-18.842-10.854-3.686 45.466-26.624 67.789-50.381 73.933 8.602 20.48 29.696 33.178 57.549 38.912 4.096 0.819 7.578 2.458 7.578 5.939 0 4.301-3.277 5.939-7.578 5.939-9.216 0-22.528-5.12-33.382-8.397-16.589-5.12-30.925-8.397-43.418-8.397-26.624 0-49.971 11.878-57.549 11.878-3.277 0-5.734-2.458-5.734-5.939 0-2.458 1.638-5.12 6.758-6.758 22.118-7.168 36.659-18.842 43.008-34.611-13.107-4.915-24.166-14.746-31.539-27.853-8.806 18.022-20.070 26.214-36.454 26.214s-28.262-11.878-28.262-26.214c0-10.035 6.758-17.613 14.131-17.613 3.277 0 4.915 1.638 4.915 4.301 0 3.277-1.638 4.301-1.638 9.216s4.096 9.216 10.854 9.216c10.035 0 19.251-10.035 19.251-37.888v-6.963c-26.214-11.674-43.418-32.358-43.418-60.416s18.842-50.381 43.418-57.344v-71.066c-18.637 15.155-29.082 34.816-35.84 49.357-1.638 3.277-3.277 7.578-7.578 7.578-4.915 0-6.758-5.12-4.096-11.059 2.458-5.939 4.096-15.155 4.096-23.552 0-10.035-3.277-19.456-10.035-26.214-3.277-3.277-5.734-5.939-5.734-8.397 0-3.277 2.458-5.12 4.915-5.12 4.915 0 10.854 5.939 21.709 5.939 6.758 0 14.95-3.277 28.262-11.878 1.434-0.819 2.867-1.638 4.096-2.662v-21.709c0-11.878-4.915-19.456-14.95-19.456-6.758 0-10.854 5.12-10.854 11.878 0 5.12 3.277 6.758 3.277 9.216s-1.638 4.301-4.915 4.301c-4.915 0-13.312-7.578-13.312-20.275 0-11.878 8.397-26.214 25.805-26.214 9.83 0 19.251 3.072 27.853 11.674 7.987-13.107 22.323-24.986 38.298-29.286-4.301-22.323-19.661-40.55-41.165-40.55-10.854 0-16.589 5.939-16.589 13.517 0 5.939 4.096 9.216 7.578 10.854 4.096 1.638 7.578 2.458 7.578 7.578 0 2.458-1.638 5.939-10.035 5.939-14.95 0-27.443-13.517-27.443-29.491 0-17.613 12.493-34.611 38.298-34.611 22.118 0 41.165 10.854 53.248 24.781 14.336-11.674 36.045-21.299 46.694-21.299 3.277 0 6.758 1.638 6.758 5.12s-3.277 5.939-6.758 7.578c-19.251 10.035-31.744 24.371-31.744 49.766v0.41c29.696 5.53 57.549 30.106 63.693 72.090 27.034 11.674 41.37 31.744 41.37 58.982 0 39.526-36.659 66.56-74.957 66.56v0zM696.115 257.536c-29.082 0-48.333 16.794-48.333 42.189 0 21.094 14.131 37.888 30.925 37.888 6.758 0 12.493-2.458 12.493-9.216 0-4.301-1.638-7.578 2.458-7.578 2.458 0 4.915 2.458 4.915 9.216 0 8.397-7.578 15.155-18.432 15.155h-2.458c1.638 3.277 1.638 6.758 1.638 7.578 0 7.578-5.734 11.878-11.674 11.878s-11.674-3.277-11.674-7.578c0-1.638 0.819-2.458 2.458-2.458 2.458 0 3.277 2.458 7.578 2.458 3.277 0 5.734-1.638 5.734-5.939 0-5.939-4.915-8.397-9.216-10.854-13.312-7.578-22.528-22.733-22.528-40.55 0-23.552 13.312-38.707 32.563-45.466l-12.493-19.456c-16.589 0-24.986-12.698-39.936-39.526-1.638 6.758-6.758 11.878-14.95 11.878-9.216 0-14.95-6.758-14.95-15.974 0-2.458 1.638-4.301 3.277-4.301 2.458 0 4.096 1.638 4.096 4.301 0 4.301 2.458 8.397 7.578 8.397 5.734 0 8.397-4.301 8.397-9.216 0-5.939-0.819-9.216-4.915-15.974-17.408-28.672-41.574-43.008-62.464-43.008-18.432 0-29.082 10.854-29.082 21.914 0 10.035 5.734 18.637 15.77 18.637 6.758 0 10.854-4.301 10.854-10.035 0-5.12-4.096-5.12-4.096-7.578 0-1.638 1.638-2.458 3.277-2.458 4.915 0 8.397 5.939 8.397 11.878 0 9.216-7.578 15.974-18.432 15.974-10.035 0-18.432-6.758-20.89-13.517-2.458 6.758-10.854 13.517-20.89 13.517-10.854 0-18.432-6.758-18.432-15.974 0-5.939 3.277-11.878 8.397-11.878 1.638 0 3.277 0.819 3.277 2.458 0 2.458-4.096 2.458-4.096 7.578 0 5.939 4.096 10.035 10.854 10.035 10.035 0 15.77-8.397 15.77-18.637 0-10.854-10.854-21.914-29.082-21.914-20.89 0-45.056 14.336-62.464 43.008-4.096 6.758-4.915 10.035-4.915 15.974 0 5.12 2.458 9.216 8.397 9.216 4.915 0 7.578-4.301 7.578-8.397 0-2.458 1.638-4.301 4.096-4.301 1.638 0 3.277 1.638 3.277 4.301 0 9.216-5.734 15.974-14.95 15.974-8.397 0-13.312-5.12-14.95-11.878-14.95 27.034-23.347 39.526-39.936 39.526l-12.493 19.456c19.251 6.758 32.563 21.914 32.563 45.466 0 17.613-9.216 32.768-22.528 40.55-4.096 2.458-9.216 5.12-9.216 10.854 0 4.301 2.458 5.939 5.734 5.939 4.096 0 4.915-2.458 7.578-2.458 1.638 0 2.458 0.819 2.458 2.458 0 4.301-5.734 7.578-11.674 7.578s-11.674-4.301-11.674-11.878c0-0.819 0-4.301 1.638-7.578h-2.458c-10.854 0-18.432-6.758-18.432-15.155 0-6.758 2.458-9.216 4.915-9.216 4.096 0 2.458 3.277 2.458 7.578 0 6.758 5.734 9.216 12.493 9.216 16.589 0 30.925-16.794 30.925-37.888 0-25.19-19.251-42.189-48.333-42.189-34.202 0-60.006 25.19-60.006 60.621s20.070 58.163 42.598 79.258l19.251 18.637c24.166 22.733 34.202 46.285 34.202 75.776 0 31.949-19.251 67.379-59.187 85.197 8.397 2.458 13.312 10.854 13.312 21.094 0 6.758-2.458 10.854-2.458 15.974 0 10.035 5.734 15.974 14.131 15.974 7.578 0 12.493-5.939 12.493-11.878 0-5.12-3.277-9.216-9.216-9.216-2.458 0-4.096 0-4.096-2.458s2.458-3.277 5.734-3.277c10.035 0 14.95 8.397 14.95 12.698 1.638-0.819 3.277-1.638 5.734-1.638 5.734 0 10.035 4.301 10.035 10.035 0 1.638-0.819 4.301-3.277 4.301-1.638 0-2.458-1.638-2.458-3.277 0-2.458-1.638-4.301-4.096-4.301-3.277 0-5.734 2.458-7.578 5.939-3.277 5.939-10.035 10.854-18.432 10.854-10.854 0-19.251-7.578-20.89-17.613-4.915 5.12-10.854 10.035-19.251 15.155 6.758 4.301 12.493 7.578 19.251 12.698 10.035 7.578 19.251 15.974 29.082 27.034l45.875 50.586c39.936 44.646 65.741 55.706 90.931 55.706 21.709 0 32.563-11.059 32.563-23.552 0-9.216-3.891-16.179-10.24-19.456-3.482 3.686-6.144 8.602-7.373 14.541-0.819 4.301-1.638 4.301-2.458 4.301-1.638 0-1.638-1.638-1.638-3.277 0-7.168 1.638-13.107 4.506-17.613-0.819 0-1.843 0-2.867 0-8.397 0-13.312 4.301-13.312 9.216 0 0.819 0 2.458 1.638 4.301 1.638 1.638 0.819 2.458 0 2.458-3.277 0-6.758-4.301-6.758-9.216 0-5.939 4.915-14.336 19.251-14.336 2.048 0 4.915 0.205 7.782 1.229 4.71-3.686 10.445-5.325 16.384-5.325s11.674 1.843 16.384 5.325c3.072-0.819 5.734-1.229 7.782-1.229 14.131 0 19.251 8.397 19.251 14.336 0 5.12-3.277 9.216-6.758 9.216-0.819 0-1.638-0.819 0-2.458s1.638-3.277 1.638-4.301c0-5.12-4.915-9.216-13.312-9.216-1.024 0-1.843 0-2.867 0 2.867 4.506 4.506 10.24 4.506 17.613 0 1.638 0 3.277-1.638 3.277-0.819 0-1.638 0-2.458-4.301-1.229-5.939-3.686-10.854-7.373-14.541-6.349 3.482-10.24 10.24-10.24 19.456 0 12.698 10.854 23.552 32.563 23.552 24.986 0 50.79-11.059 90.931-55.706l45.875-50.586c9.216-10.854 19.251-19.456 29.082-27.034 6.758-5.12 12.493-8.397 19.251-12.698-8.397-5.12-14.131-10.035-19.251-15.155-1.638 10.035-10.035 17.613-20.89 17.613-8.397 0-14.95-5.12-18.432-10.854-1.638-3.277-4.096-5.939-7.578-5.939-2.458 0-4.096 1.638-4.096 4.301 0 1.638-0.819 3.277-2.458 3.277-2.458 0-3.277-2.458-3.277-4.301 0-5.939 4.096-10.035 10.035-10.035 2.458 0 4.096 0.819 5.734 1.638 0-4.301 4.915-12.698 14.95-12.698 3.277 0 5.734 0.819 5.734 3.277s-1.638 2.458-4.096 2.458c-5.734 0-9.216 3.277-9.216 9.216s4.915 11.878 12.493 11.878c8.397 0 14.131-5.939 14.131-15.974 0-5.12-2.458-9.216-2.458-15.974 0-10.035 4.915-18.637 13.312-21.094-39.936-17.613-59.187-53.043-59.187-85.197 0-29.491 10.035-53.043 34.202-75.776l19.251-18.637c22.528-21.094 42.598-44.646 42.598-79.258s-25.805-60.621-60.006-60.621v0zM512 100.864c-6.758 13.517-14.131 21.914-17.408 26.214 8.397 3.277 14.131 9.216 17.408 15.974 3.277-6.758 9.216-12.698 17.408-15.974-3.277-4.301-10.854-12.698-17.408-26.214v0zM520.397 733.082c-2.662-1.229-5.53-1.843-8.397-1.843s-5.734 0.614-8.397 1.843c3.277 2.458 6.349 6.144 8.397 11.469 2.253-5.325 5.12-8.806 8.397-11.469v0zM769.434 354.406c-4.915 0-9.216-2.458-10.854-5.939-6.758 15.155-13.312 29.491-42.598 56.525 1.638-0.819 7.578-1.638 11.674-1.638 9.216 0 19.251 2.458 24.986 8.397 1.638-5.939 6.758-9.216 12.493-9.216 9.216 0 12.493 5.939 12.493 12.698 0 2.458-0.819 5.12-3.277 5.12-4.915 0-0.819-10.035-9.216-10.035-3.277 0-5.734 2.458-5.734 6.758s2.458 9.216 2.458 15.155c0 13.517-8.397 22.733-18.432 25.19-5.734 1.638-9.216 5.939-9.216 10.854 0 6.758 4.915 7.578 8.397 7.578s5.734-0.819 5.734 1.638-2.458 4.301-7.578 4.301c-5.734 0-14.131-4.301-14.131-13.517 0-3.277 0.819-6.758 4.096-10.035-7.578-1.638-14.131-7.578-14.131-16.794 0-5.939 1.638-11.878 5.734-11.878 4.915 0 0.819 4.301 0.819 10.854 0 7.578 6.758 10.854 13.312 10.854 9.216 0 17.408-8.397 17.408-19.456 0-12.698-10.035-21.094-25.805-21.094-9.216 0-22.528 1.638-33.382 14.336-17.408 19.456-27.443 36.25-27.443 66.56 0 38.707 27.443 72.499 67.584 83.354 8.397 2.458 14.95 10.035 14.95 20.275 0 8.397-4.915 15.155-13.312 15.155-3.277 0-5.734-0.819-5.734-3.277s2.458-2.458 4.096-2.458c3.277 0 7.578-3.277 7.578-9.216 0-8.397-6.758-13.517-14.131-13.517-9.216 0-14.95 6.758-14.95 15.974 0 17.613 20.89 29.491 36.659 37.069-14.131 6.758-19.251 9.216-30.106 17.613-2.458 2.458-3.277 5.12-3.277 8.397 0 4.301 2.458 7.578 5.734 7.578 2.458 0 4.096-1.638 4.096-4.301s-1.638-2.458-1.638-4.301 0.819-2.458 2.458-2.458 5.734 1.638 5.734 8.397c0 5.12-3.277 10.035-10.854 10.035s-13.312-5.939-13.312-14.336c-5.734 5.12-12.493 10.854-18.432 17.613l-26.624 29.491c-7.578 8.397-3.277 24.371 7.578 24.371 5.734 0 8.397-4.301 8.397-7.578 0-7.578-7.578-4.301-7.578-8.397 0-1.638 0.819-3.277 3.277-3.277 5.734 0 11.674 4.301 11.674 12.698 0 7.578-6.758 14.336-15.77 14.336-10.854 0-18.432-8.397-18.432-20.275l-8.397 9.216c-36.659 40.55-66.765 58.163-95.846 58.163-10.854 0-20.89-3.277-26.624-7.578-4.915 5.939-7.578 10.035-10.854 15.155-3.277-5.12-5.734-9.216-10.854-15.155-5.734 4.301-15.77 7.578-26.624 7.578-29.082 0-59.187-17.613-95.846-58.163l-8.397-9.216c0 11.878-7.578 20.275-18.432 20.275-9.216 0-15.77-6.758-15.77-14.336 0-8.397 5.734-12.698 11.674-12.698 2.458 0 3.277 1.638 3.277 3.277 0 4.301-7.578 0.819-7.578 8.397 0 3.277 2.458 7.578 8.397 7.578 10.854 0 14.95-15.974 7.578-24.371l-26.624-29.491c-5.734-6.758-12.493-12.698-18.432-17.613 0 8.397-5.734 14.336-13.312 14.336s-10.854-5.12-10.854-10.035c0-6.758 4.096-8.397 5.734-8.397s2.458 0.819 2.458 2.458-1.638 1.638-1.638 4.301 1.638 4.301 4.096 4.301c3.277 0 5.734-3.277 5.734-7.578 0-3.277-0.819-5.939-3.277-8.397-10.035-10.035-15.77-10.854-30.106-17.613 15.77-7.578 36.659-19.456 36.659-37.069 0-9.216-5.734-15.974-14.95-15.974-7.578 0-14.131 5.12-14.131 13.517 0 5.939 4.096 9.216 7.578 9.216 1.638 0 4.096 0 4.096 2.458s-2.458 3.277-5.734 3.277c-8.397 0-13.312-6.758-13.312-15.155 0-10.035 6.758-17.613 14.95-20.275 39.936-11.878 67.584-44.646 67.584-83.354 0-30.31-10.854-46.285-27.443-66.56-10.854-12.698-24.166-14.336-33.382-14.336-15.77 0-25.805 8.397-25.805 21.094 0 10.854 8.397 19.456 17.408 19.456 6.758 0 13.312-3.277 13.312-10.854 0-6.758-4.096-10.854 0.819-10.854 4.096 0 5.734 5.939 5.734 11.878 0 9.216-6.758 15.155-14.131 16.794 3.277 3.277 4.096 6.758 4.096 10.035 0 9.216-8.397 13.517-14.131 13.517-4.915 0-7.578-1.638-7.578-4.301s2.458-1.638 5.734-1.638 8.397-0.819 8.397-7.578c0-5.12-3.277-9.216-9.216-10.854-10.035-2.458-18.432-11.878-18.432-25.19 0-5.939 2.458-10.854 2.458-15.155s-2.458-6.758-5.734-6.758c-8.397 0-4.096 10.035-9.216 10.035-2.458 0-3.277-2.458-3.277-5.12 0-6.758 3.277-12.698 12.493-12.698 5.734 0 10.854 3.277 12.493 9.216 5.734-5.939 15.77-8.397 24.986-8.397 4.096 0 10.035 0.819 11.674 1.638-29.082-27.034-35.84-41.37-42.598-56.525-1.638 3.277-5.734 5.939-10.854 5.939-8.397 0-12.493-5.12-12.493-12.698 0-1.638 0-6.758 4.096-6.758 3.277 0 1.638 3.277 1.638 5.939 0 3.277 2.458 5.939 6.758 5.939 6.758 0 8.397-5.939 6.758-15.155-0.819-4.301-0.819-9.216-0.819-13.517 0-39.526 29.082-68.198 67.584-68.198 5.734 0 10.854 0.819 16.589 1.638l11.674-17.613c-8.397-2.458-14.131-10.035-14.131-18.637 0-11.059 8.397-19.456 19.251-19.456 6.758 0 11.674 3.277 11.674 6.758 0 2.458-1.638 3.277-3.277 3.277-2.458 0-2.458-2.458-8.397-2.458-6.758 0-11.674 5.12-11.674 11.878s5.734 11.878 14.131 11.878c15.77 0 23.347-18.637 34.202-37.069l10.854-18.637c17.408-30.31 45.875-48.128 69.222-48.128 3.277 0 6.758 0 10.035 0.819 10.035-10.035 20.070-28.672 24.166-37.069 4.096 8.397 14.131 27.034 24.166 37.069 3.277-0.819 6.758-0.819 10.035-0.819 23.347 0 51.61 17.613 69.222 48.128l10.854 18.637c10.854 18.637 18.432 37.069 34.202 37.069 8.397 0 14.131-5.12 14.131-11.878s-4.915-11.878-11.674-11.878c-5.734 0-5.734 2.458-8.397 2.458-1.638 0-3.277-0.819-3.277-3.277 0-3.277 4.915-6.758 11.674-6.758 10.854 0 19.251 8.397 19.251 19.456 0 8.397-5.734 15.974-14.131 18.637l11.674 17.613c5.734-0.819 10.854-1.638 16.589-1.638 38.298 0 67.584 28.672 67.584 68.198 0 4.301 0 9.216-0.819 13.517-1.638 9.216 0 15.155 6.758 15.155 4.096 0 6.758-2.458 6.758-5.939 0-2.458-1.638-5.939 1.638-5.939 4.096 0 4.096 5.12 4.096 6.758 0 7.578-4.096 12.698-12.493 12.698v0zM747.93 209.408c-36.659-37.888-90.931-64.922-142.541-90.112-34.202-16.794-67.584-33.792-93.389-53.862-25.805 20.275-59.187 37.069-93.389 53.862-51.61 25.19-105.882 52.224-142.541 90.112-46.694 48.128-69.222 96.87-69.222 152.576 0 47.104 18.432 86.835 60.006 139.878 3.277 4.301 6.758 8.397 6.758 11.878s-3.277 10.035-4.915 13.517l-29.082 64.102c-6.758 14.336-13.312 27.853-13.312 42.189 0 11.878 7.578 20.275 17.408 28.672l41.574 37.888c1.638 1.638 1.638 4.301 0.819 5.939l-13.312 27.853c-1.638 3.277-1.638 5.939 0.819 7.578 40.755 27.853 74.957 36.25 124.109 49.766 46.694 12.698 88.269 23.552 114.278 40.55 25.805-16.794 67.584-27.853 114.278-40.55 49.152-13.517 82.534-23.552 124.109-49.766 2.458-1.638 2.458-4.301 0.819-7.578l-13.312-27.853c-0.819-1.638-0.819-4.301 0.819-5.939l41.574-37.888c10.035-8.397 17.408-16.794 17.408-28.672 0-14.336-6.758-27.853-13.312-42.189l-29.082-64.102c-1.638-3.277-4.915-10.035-4.915-13.517s3.277-7.578 6.758-11.878c45.056-50.586 60.006-92.774 60.006-139.878 0-55.706-22.528-104.448-69.222-152.576v0zM787.046 499.405c-7.578 9.216-11.674 13.517-11.674 16.794s2.458 8.397 4.915 14.336l24.986 55.706c7.578 16.794 14.131 31.13 14.131 48.947 0 12.698-4.915 25.19-17.408 36.25l-35.84 31.13c-3.277 2.458-3.277 6.758-1.638 10.035l13.312 30.31c0.819 1.638 0.819 4.301-1.638 5.939-40.755 27.853-87.45 44.646-131.686 57.344-44.237 11.878-103.424 28.672-132.506 51.405-29.082-22.733-88.269-38.707-132.506-51.405s-90.931-29.491-131.686-57.344c-2.458-1.638-2.458-4.301-1.638-5.939l13.312-30.31c1.638-3.277 1.638-7.578-1.638-10.035l-35.84-31.13c-12.493-10.854-17.408-23.552-17.408-36.25 0-17.613 6.758-31.949 14.131-48.947l24.986-55.706c2.458-5.939 4.915-10.854 4.915-14.336s-4.096-7.578-11.674-16.794c-37.478-47.104-52.429-86.016-52.429-137.421 0-71.68 35.021-126.362 74.957-167.731 40.755-42.189 97.485-70.042 149.094-95.232 34.202-16.794 70.042-33.792 103.424-60.621 33.382 27.034 69.222 43.827 103.424 60.621 51.61 25.19 109.158 53.043 149.094 95.232 39.936 41.37 74.957 96.051 74.957 167.731 0 51.405-14.95 90.112-52.429 137.421v0z" />
<glyph unicode="&#xe940;" d="M204.8 960h614.4c113.108 0 204.8-91.692 204.8-204.8v-614.4c0-113.108-91.692-204.8-204.8-204.8h-614.4c-113.108 0-204.8 91.692-204.8 204.8v614.4c0 113.108 91.692 204.8 204.8 204.8z" />
<glyph unicode="&#xe941;" d="M528.179 826.88c-2.662-22.938-1.434-47.514 5.12-67.174 8.806-26.624 21.094-45.875 66.355-104.653 47.718-62.054 62.874-84.378 74.138-116.531 9.216-26.214 9.421-41.37 5.53-65.331 41.779-7.987 110.182-30.106 156.058-57.549 42.598-26.214 73.523-60.006 84.787-92.979 6.758-19.456 6.349-49.562-0.614-68.608-6.758-18.022-16.179-33.178-29.901-48.333-54.886-60.211-163.635-103.424-294.502-117.146-28.877-3.072-99.942-5.12-124.314-3.686-174.899 10.24-315.597 70.656-355.533 152.781-16.589 34.202-16.179 63.488 1.229 97.28 14.541 27.853 54.067 62.259 100.762 87.45 44.851 21.504 87.040 37.683 132.096 50.381 2.253-29.491 59.597-99.942 78.643-124.928 41.37-54.272 57.754-80.077 69.632-100.966 6.963-12.493 11.059-20.48 9.011-44.032 0 0 15.974 14.541 21.914 26.624 7.782 15.77 10.65 31.949 9.011 52.634-1.843 24.986-5.939 40.141-18.022 64.512-11.674 23.757-28.262 47.718-59.802 86.426-44.646 54.682-61.030 84.787-67.789 123.699-7.578 43.418 4.71 89.293 29.491 111.821 5.325 4.915 14.131 9.626 14.131 9.626s-0.819-11.264-0.819-23.757c0-26.829 3.072-40.755 13.312-61.235 12.698-25.395 30.515-49.152 84.787-113.664 47.923-57.139 62.874-86.221 62.874-122.47 0-8.602 0-17.408 0-17.408s12.698 9.626 18.637 18.637c18.637 28.058 21.504 71.885 7.373 110.797-9.626 26.624-25.395 50.79-72.090 109.363-47.309 59.597-67.174 107.315-67.174 147.046s8.602 77.619 45.67 101.376v0z" />
<glyph unicode="&#xe942;" d="M204.8 960h614.4c113.108 0 204.8-91.692 204.8-204.8v-614.4c0-113.108-91.692-204.8-204.8-204.8h-614.4c-113.108 0-204.8 91.692-204.8 204.8v614.4c0 113.108 91.692 204.8 204.8 204.8z" />
<glyph unicode="&#xe943;" d="M151.142 768.512c-6.349-0.614-12.698-2.048-18.637-5.939-13.722-7.987-21.709-22.733-21.709-37.683 0-6.349 1.638-13.312 4.71-19.661l213.811-372.122 182.477 315.392-69.427 120.013h-291.226z" />
<glyph unicode="&#xe944;" d="M442.982 768.512l182.067-314.778h138.035l146.022 252.723c2.662 5.939 4.301 11.674 4.301 18.637 0 23.347-18.022 41.984-40.96 43.418h-429.261z" />
<glyph unicode="&#xe945;" d="M753.459 453.734h-353.894l-69.427-120.013 146.432-252.723c3.277-5.325 8.397-9.626 13.722-13.312 6.963-3.686 14.336-5.939 21.709-5.939 14.336 0 28.058 7.373 36.659 19.661l215.040 372.122h-10.035z" />
<glyph unicode="&#xe946;" d="M204.8 960h614.4c113.108 0 204.8-91.692 204.8-204.8v-614.4c0-113.108-91.692-204.8-204.8-204.8h-614.4c-113.108 0-204.8 91.692-204.8 204.8v614.4c0 113.108 91.692 204.8 204.8 204.8z" />
<glyph unicode="&#xe947;" d="M622.797 599.142c0-32.973-8.806-49.562-19.251-50.79-6.963-0.819-14.95 4.915-22.118 16.794-23.757 39.117-49.766 76.39-77.414 112.845 0 0 0 0 0 0.205 10.65 57.754 27.853 116.531 57.344 167.526 36.659-73.933 62.054-164.454 61.645-246.784zM484.966 601.19c26.010-23.347 32.973-41.779 27.238-52.019-3.686-6.554-13.312-9.83-27.238-8.192-46.49 5.53-92.979 7.578-139.878 7.987 0 0 0 0 0 0-44.237 52.838-84.378 112.23-110.182 176.333 87.859-20.89 183.091-64.307 250.266-124.518zM396.288 480.768c34.611 7.373 53.658 1.229 57.958-10.24 2.867-7.578-0.614-17.613-10.445-28.262-32.563-35.43-62.259-72.704-90.726-111.411h-0.205c-70.042-5.12-142.746-2.253-210.944 14.746 69.632 61.645 163.84 115.917 254.566 135.168zM436.019 332.288c15.155 32.358 31.334 44.442 42.598 40.96 7.373-2.253 12.698-11.059 14.746-25.395 6.349-44.851 15.36-89.088 26.214-133.12 0 0 0 0 0 0-38.093-54.067-78.848-106.086-130.048-148.275-6.144 87.245 9.83 187.187 46.694 265.83zM567.296 279.245c-13.517 29.491-12.493 49.562-3.277 56.525 5.939 4.506 15.565 3.686 26.624-2.867 33.997-20.070 69.018-38.912 105.882-53.658 0 0 0 0 0-0.205 13.312-55.296 20.89-113.254 17.613-169.984-61.235 40.141-116.736 104.653-146.637 170.394zM683.008 352.154c-28.058 6.144-41.37 18.637-40.55 30.106 0.614 7.578 7.168 14.746 18.637 19.866 35.226 15.565 69.837 32.768 102.605 53.248 0 0 0 0 0 0 43.418-22.118 84.992-50.176 118.374-85.811-60.826-23.757-136.192-31.334-199.27-17.408zM705.946 489.37c-22.118-19.456-39.322-22.733-46.694-14.746-4.915 5.12-5.939 15.155-2.253 28.058 11.674 40.96 20.89 82.125 28.467 124.109 0 0 0 0 0 0 44.646 20.89 89.498 40.141 139.059 45.261-23.347-66.97-65.946-136.397-118.784-182.682z" />
<glyph unicode="&#xe948;" d="M560.333 845.926c-29.286-51.2-46.49-109.978-57.139-167.526 0 0 0 0 0-0.205-7.373 9.626-17.203 21.094-25.6 31.539-32.154 39.936-67.584 77.21-103.424 113.869 58.778 23.552 123.494 31.334 186.368 22.118zM137.011 533.197c54.886 6.758 109.978 12.902 164.659 14.746 14.131 0.41 30.106 1.229 42.803 1.229 0 0 0 0 0 0-44.237 52.838-84.378 112.23-110.182 176.333-48.947-54.067-82.33-121.242-96.87-192.512zM245.146 158.003c25.805 47.104 53.043 93.594 82.739 137.421 7.782 11.674 16.794 24.986 24.166 35.43h-0.205c-69.837-5.12-142.746-2.253-210.944 14.746 17.408-70.451 53.248-135.782 104.243-187.597zM574.464 51.917c-16.589 41.779-32.563 83.968-45.261 126.566-3.482 11.878-7.578 25.6-10.65 36.659 0 0 0 0 0 0-38.093-54.067-78.848-105.882-130.048-148.275 61.85-18.022 121.856-26.624 185.958-14.541zM831.078 234.803c-35.635 9.011-71.27 19.251-105.267 32.768-9.626 3.891-21.094 7.782-29.901 11.674 0 0 0 0 0-0.205 13.312-55.296 20.89-113.050 17.613-169.984 48.128 32.358 88.269 75.776 117.76 125.747zM878.797 538.931c-28.672-23.552-58.163-46.285-89.293-66.355-8.602-5.53-18.637-12.288-26.829-17.203 0 0 0 0 0 0 43.418-22.118 84.992-50.176 118.374-85.606 7.987 58.778 7.373 111.002-2.662 169.37zM701.85 793.907c-2.662-44.032-5.734-88.064-11.674-131.072-1.638-11.674-3.482-25.19-5.325-36.045 0 0 0 0 0 0 44.646 20.89 89.498 40.141 139.059 45.261-31.13 48.947-72.909 91.136-122.266 121.856z" />
<glyph unicode="&#xe949;" d="M204.8 960h614.4c113.108 0 204.8-91.692 204.8-204.8v-614.4c0-113.108-91.692-204.8-204.8-204.8h-614.4c-113.108 0-204.8 91.692-204.8 204.8v614.4c0 113.108 91.692 204.8 204.8 204.8z" />
<glyph unicode="&#xe94a;" d="M924.467 604.262s-43.008 0-88.474 0c-45.466 0-56.934-35.021-56.934-35.021l-113.664-293.888 44.237-114.278c45.466 0 56.934 35.021 56.934 35.021l157.901 408.166z" />
<glyph unicode="&#xe94b;" d="M589.414 471.962v0s0 0.41 0 0.41v0c-10.035 25.19-30.515 45.875-54.477 61.85 23.757 20.89 38.707 52.019 38.707 86.835 0 50.176-43.213 114.074-166.912 114.074h-217.293v-167.526h-89.702v-96.256h89.702v-173.056h228.352c19.661 0 39.322 2.048 58.368 6.758h0.205c13.926 3.482 27.443 8.397 40.141 15.155l47.923-123.699s11.469-34.816 56.934-35.021c45.466 0 88.474 0 88.474 0l-120.218 310.886zM318.054 638.669h80.282c35.43 0 46.49-18.432 46.49-35.635s-11.059-35.43-46.080-35.635h-80.486v71.27zM318.054 471.142h85.197c37.478 0 49.152-19.456 49.152-37.683s-11.674-37.683-48.947-37.683h-85.402v75.571z" />
<glyph unicode="&#xe94c;" d="M470.016 439.603s-9.626 31.539-61.645 31.539h-3.686c36.454-0.614 47.718-19.866 47.718-37.888s-11.674-37.683-48.947-37.683h-85.402v75.571h-129.024v-173.261h228.352c19.661 0 39.322 2.048 58.368 6.758h0.205c13.926 3.482 27.443 8.397 40.141 15.155l-46.49 120.013z" />
<glyph unicode="&#xe94d;" d="M189.235 471.142h-89.702l89.702-41.37v41.37z" />
<glyph unicode="&#xe94e;" d="M204.8 960h614.4c113.108 0 204.8-91.692 204.8-204.8v-614.4c0-113.108-91.692-204.8-204.8-204.8h-614.4c-113.108 0-204.8 91.692-204.8 204.8v614.4c0 113.108 91.692 204.8 204.8 204.8z" />
<glyph unicode="&#xe94f;" d="M753.050 625.766h-324.813c-5.53 0-8.192-1.434-12.493-5.734l-81.51-90.726-87.040 90.726c-4.096 4.301-6.963 5.734-13.722 5.734h-124.518c-6.963 0-8.397-4.301-4.301-8.602l160.358-161.178-157.491-159.744c-4.096-4.301-4.096-8.602 2.867-8.602h122.88c8.397 0 11.059 1.434 15.36 5.734l82.944 87.859 80.077-86.426c5.53-5.734 8.397-7.168 16.589-7.168h153.395v-2.867c-38.707-15.77-55.296-44.646-55.296-95.027v-28.877h103.629v122.47c0 2.867 1.434 4.301 4.096 4.301h120.218c75.981 0 139.469 24.371 164.454 102.195h2.458c0 2.458 0.41 5.12 0.41 7.578v124.518h-2.867c-24.781 77.824-91.136 103.629-165.888 103.629zM501.146 342.528l-124.314 125.133 124.314 125.133v-250.47zM726.63 401.51h-121.651v132.506h121.651c45.466 0 77.414-21.504 77.414-66.15s-31.744-66.15-77.414-66.15z" />
<glyph unicode="&#xe950;" d="M204.8 960h614.4c113.108 0 204.8-91.692 204.8-204.8v-614.4c0-113.108-91.692-204.8-204.8-204.8h-614.4c-113.108 0-204.8 91.692-204.8 204.8v614.4c0 113.108 91.692 204.8 204.8 204.8z" />
<glyph unicode="&#xe951;" d="M512 800.051c-225.28 0-408.781-178.79-408.781-398.336 0-106.291 42.394-206.234 119.603-281.395 33.178-32.358 87.245-32.563 120.627 0 33.382 32.358 33.382 84.992 0 117.555-45.056 43.827-69.837 102.195-69.837 164.045 0 128.205 106.906 232.243 238.387 232.243s238.387-104.243 238.387-232.243c0-61.85-24.781-120.218-69.837-164.045-33.178-32.358-33.178-84.992 0-117.555 7.987-7.782 17.408-13.926 27.648-18.022 10.445-4.096 21.504-6.349 32.563-6.349 11.264 0 22.323 2.253 32.563 6.349s19.661 10.24 27.648 18.022c77.005 75.366 119.603 175.309 119.603 281.395 0 219.75-183.296 398.336-408.781 398.336z" />
</font>
</defs>
</svg>
