<svg xmlns="http://www.w3.org/2000/svg" xmlns:xlink="http://www.w3.org/1999/xlink" width="1280" zoomAndPan="magnify" viewBox="0 0 960 599.999999" height="800" preserveAspectRatio="xMidYMid meet" version="1.0"><defs><filter x="0%" y="0%" width="100%" height="100%" id="a7bc753abe"><feColorMatrix values="0 0 0 0 1 0 0 0 0 1 0 0 0 0 1 0 0 0 1 0" color-interpolation-filters="sRGB"/></filter><clipPath id="5c7784fd95"><path d="M 0 206 L 399 206 L 399 599.949219 L 0 599.949219 Z M 0 206 " clip-rule="nonzero"/></clipPath><mask id="0bf4ead31b"><g filter="url(#a7bc753abe)"><rect x="-96" width="1152" fill="#000000" y="-60" height="719.999999" fill-opacity="0.72"/></g></mask><clipPath id="dbb55c41ca"><path d="M 6 0 L 220 0 L 220 206.640625 L 6 206.640625 Z M 6 0 " clip-rule="nonzero"/></clipPath><clipPath id="2538753d48"><rect x="0" width="223" y="0" height="207"/></clipPath><mask id="1d96b62600"><g filter="url(#a7bc753abe)"><rect x="-96" width="1152" fill="#000000" y="-60" height="719.999999" fill-opacity="0.72"/></g></mask><clipPath id="e787b0dd68"><path d="M 0 0.238281 L 212.640625 0.238281 L 212.640625 420 L 0 420 Z M 0 0.238281 " clip-rule="nonzero"/></clipPath><clipPath id="6eaf821a02"><rect x="0" width="213" y="0" height="426"/></clipPath><clipPath id="584ffc55d8"><path d="M 120 141 L 744.75 141 L 744.75 599.949219 L 120 599.949219 Z M 120 141 " clip-rule="nonzero"/></clipPath><mask id="e0aac8a8fd"><g filter="url(#a7bc753abe)"><rect x="-96" width="1152" fill="#000000" y="-60" height="719.999999" fill-opacity="0.72"/></g></mask><clipPath id="8fa46646d0"><path d="M 0 3 L 624.75 3 L 624.75 458.949219 L 0 458.949219 Z M 0 3 " clip-rule="nonzero"/></clipPath><clipPath id="37f1cb461e"><rect x="0" width="625" y="0" height="459"/></clipPath><clipPath id="cd821d6dc5"><path d="M 240 437 L 564 437 L 564 599.949219 L 240 599.949219 Z M 240 437 " clip-rule="nonzero"/></clipPath><mask id="4dc9a0e41a"><g filter="url(#a7bc753abe)"><rect x="-96" width="1152" fill="#000000" y="-60" height="719.999999" fill-opacity="0.72"/></g></mask><clipPath id="a38a063f07"><path d="M 0.238281 3 L 318 3 L 318 162.949219 L 0.238281 162.949219 Z M 0.238281 3 " clip-rule="nonzero"/></clipPath><clipPath id="68c61b9105"><rect x="0" width="324" y="0" height="163"/></clipPath></defs><g clip-path="url(#5c7784fd95)"><path fill="#ffdf00" d="M 82.351562 206.574219 L 240.582031 364.808594 L 398.816406 522.945312 L 322.75 599.011719 L 0 599.011719 L 0 288.925781 Z M 82.351562 206.574219 " fill-opacity="1" fill-rule="evenodd"/></g><g mask="url(#0bf4ead31b)"><g transform="matrix(1, 0, 0, 1, 9, -0.000000000000034788)"><g clip-path="url(#2538753d48)"><g clip-path="url(#dbb55c41ca)"><path fill="#ffdf00" d="M 113 -6.097656 L 219.105469 100.007812 L 166.054688 153.152344 L 113 206.207031 L 59.949219 153.152344 L 6.804688 100.007812 L 59.949219 46.957031 Z M 113 -6.097656 " fill-opacity="1" fill-rule="evenodd"/></g></g></g></g><g mask="url(#1d96b62600)"><g transform="matrix(1, 0, 0, 1, 0, 12)"><g clip-path="url(#6eaf821a02)"><g clip-path="url(#e787b0dd68)"><path fill="#009b2d" d="M 2.773438 0.945312 L 107.492188 105.660156 L 212.300781 210.378906 L 107.492188 315.191406 L 2.773438 419.90625 L 0 417.136719 L 0 3.714844 Z M 2.773438 0.945312 " fill-opacity="1" fill-rule="evenodd"/></g></g></g></g><g clip-path="url(#584ffc55d8)"><g mask="url(#e0aac8a8fd)"><g transform="matrix(1, 0, 0, 1, 120, 141)"><g clip-path="url(#37f1cb461e)"><g clip-path="url(#8fa46646d0)"><path fill="#009b2d" d="M 312.457031 3.371094 L 468.472656 159.386719 L 624.488281 315.492188 L 481.96875 458.011719 L 142.949219 458.011719 L 0.429688 315.492188 L 156.445312 159.386719 Z M 312.457031 3.371094 " fill-opacity="1" fill-rule="evenodd"/></g></g></g></g></g><g clip-path="url(#cd821d6dc5)"><g mask="url(#4dc9a0e41a)"><g transform="matrix(1, 0, 0, 1, 240, 437)"><g clip-path="url(#68c61b9105)"><g clip-path="url(#a38a063f07)"><path fill="#ffdf00" d="M 159.183594 3.597656 L 271.667969 116.078125 L 317.601562 162.011719 L 0.769531 162.011719 Z M 159.183594 3.597656 " fill-opacity="1" fill-rule="evenodd"/></g></g></g></g></g></svg>